<?xml version="1.0" encoding="utf-8"?>
<!-- Generator: Adobe Illustrator 27.3.1, SVG Export Plug-In . SVG Version: 6.00 Build 0)  -->
<svg width="48px" height="48px" version="1.1" id="Layer_1" xmlns="http://www.w3.org/2000/svg" xmlns:xlink="http://www.w3.org/1999/xlink" x="0px" y="0px"
	 viewBox="0 0 266 264" style="enable-background:new 0 0 266 264;" xml:space="preserve">
<style type="text/css">
	.st0{fill-rule:evenodd;clip-rule:evenodd;fill:#CCCCCC;}
</style>
<path class="st0" d="M60.5,33.2c-14.2,0-24.6,12.4-24.2,25.8c0.4,12.9-0.1,29.6-4.3,43.2c-4.2,13.7-11.4,22.3-23,23.4v12.6
	c11.7,1.1,18.8,9.8,23,23.4c4.2,13.6,4.8,30.3,4.3,43.2c-0.5,13.4,10,25.8,24.2,25.8h145c14.2,0,24.6-12.4,24.2-25.8
	c-0.4-12.9,0.1-29.6,4.3-43.2c4.2-13.7,11.3-22.3,23-23.4v-12.6c-11.7-1.1-18.8-9.8-23-23.4c-4.2-13.6-4.8-30.3-4.3-43.2
	c0.5-13.4-10-25.8-24.2-25.8H60.5L60.5,33.2z M177.1,154.8c0,18.5-13.8,29.7-36.7,29.7h-39c-1.1,0-2.2-0.4-3-1.2
	c-0.8-0.8-1.2-1.9-1.2-3V83.7c0-1.1,0.4-2.2,1.2-3c0.8-0.8,1.9-1.2,3-1.2h38.7c19.1,0,31.6,10.3,31.6,26.2
	c0,11.1-8.4,21.1-19.2,22.9v0.6C167.3,130.7,177.1,140.8,177.1,154.8z M136.2,92.8H114v31.4h18.7c14.5,0,22.4-5.8,22.4-16.2
	C155.1,98.2,148.3,92.8,136.2,92.8z M114,136.6v34.6h23c15.1,0,23-6,23-17.4c0-11.4-8.2-17.2-24-17.2L114,136.6L114,136.6z"/>
</svg>
