<?xml version="1.0" encoding="UTF-8"?><svg width="48px" height="48px" id="Layer_1" xmlns="http://www.w3.org/2000/svg" viewBox="0 0 364.79 511"><defs><style>.cls-1{fill:#ccc;}</style></defs><g id="SVGRepo_iconCarrier"><g id="c133de6af664cd4f011a55de6b001a2b"><path class="cls-1" d="m130.46,46.18v22.02h-56.3V0h56.3v24.13h-32.17v22.05h32.17Zm57.88-22.05h22.49V0h-56.31v24.13c7.53,7.53,11.46,11.14,22.36,22.03-6.37,0-22.36.02-22.36.02v22.01h56.31v-22.02l-22.49-22.05Zm79.8,0h22.49V0h-56.31v24.13c7.53,7.53,11.46,11.14,22.36,22.03-6.36,0-22.36.02-22.36.02v22.01h56.31v-22.02l-22.49-22.05Zm96.65,76.48l-34.2,370.49-148.19,39.9-148.2-39.9L0,100.61h364.79Zm-68.92,75.33H66.64l5.53,44.74h116.28l-6.18,2.57-106.07,44.18,3.52,43.73,102.55.33,54.96.17-3.52,58.31-51.44,14.48v-.05l-.42.12-49.68-12.54-3.01-36.2h-46.41l6.03,69.88,93.5,27.65v-.05l.17.05,93-27.15,12.07-138.74h-105.49l.26-.11,109.09-46.64,4.53-44.74Z"/></g></g></svg>