<?xml version="1.0" encoding="UTF-8"?><svg width="48px" height="48px" id="Layer_1" xmlns="http://www.w3.org/2000/svg" viewBox="0 0 362.02 511"><defs><style>.cls-1{fill:#ccc;}</style></defs><path class="cls-1" d="m33.68,0h23.03v22.76h21.07V0h23.03v68.91h-23.03v-23.08h-21.07v23.08h-23.03V0h0Zm97.42,22.85h-20.27V0h63.59v22.85h-20.29v46.06h-23.03V22.85h0ZM184.52,0h24.02l14.77,24.21L238.07,0h24.02v68.91h-22.94v-34.15l-15.85,24.5h-.39l-15.86-24.5v34.15h-22.54V0h0ZM273.55,0h23.04v46.13h32.39v22.78h-55.43V0ZM0,100.43l32.95,369.53,147.84,41.04,148.25-41.1,32.98-369.48H0Zm293.3,87.69l-2.06,22.98-.91,10.19H116.9l4.14,46.41h165.17l-1.11,12.17-10.65,119.32-.68,7.65-92.76,25.71h0s-.21.07-.21.07l-92.84-25.77-6.35-71.16h45.5l3.23,36.15,50.47,13.63h.04v-.02l50.55-13.64,5.26-58.78H79.59l-11.14-124.9-1.09-12.16h227.02l-1.08,12.16Z"/></svg>