<?xml version="1.0" encoding="utf-8"?>
<!-- Generator: Adobe Illustrator 27.3.1, SVG Export Plug-In . SVG Version: 6.00 Build 0)  -->
<svg width="48px" height="48px" version="1.1" id="Layer_1" xmlns="http://www.w3.org/2000/svg" xmlns:xlink="http://www.w3.org/1999/xlink" x="0px" y="0px"
	 viewBox="0 0 296 294" style="enable-background:new 0 0 296 294;" xml:space="preserve">
<style type="text/css">
	.st0{fill-rule:evenodd;clip-rule:evenodd;fill:#CCCCCC;}
</style>
<path class="st0" d="M28,10.5H268c9.1,0,16.4,7.4,16.4,16.4V267c0,9.1-7.4,16.4-16.4,16.4H28c-9.1,0-16.4-7.4-16.4-16.4V27
	C11.5,17.9,18.9,10.5,28,10.5z M220.2,239.3c-12.7,0-19.8-6.6-25.3-15.6L174,235.9c7.5,14.9,22.9,26.2,46.7,26.2
	c24.4,0,42.5-12.6,42.5-35.7c0-21.4-12.3-30.9-34.1-40.3l-6.4-2.7c-11-4.8-15.8-7.9-15.8-15.6c0-6.2,4.8-11,12.3-11
	c7.4,0,12.1,3.1,16.5,11l20-12.8c-8.4-14.9-20.2-20.5-36.5-20.5c-22.9,0-37.6,14.6-37.6,33.9c0,20.9,12.3,30.8,30.8,38.6l6.4,2.8
	c11.7,5.1,18.7,8.2,18.7,17C237.6,234,230.8,239.3,220.2,239.3z M120.8,239.2c-8.8,0-12.5-6-16.5-13.2l-20.9,12.6
	c6,12.8,17.9,23.4,38.5,23.4c22.7,0,38.3-12.1,38.3-38.6v-87.6h-25.6v87.2C134.5,235.9,129.2,239.2,120.8,239.2z"/>
</svg>
