<?xml version="1.0" encoding="UTF-8"?><svg id="a" xmlns="http://www.w3.org/2000/svg" viewBox="0 0 260.31 143.3"><defs><style>.b{letter-spacing:-.09em;}.c{font-family:CharcuterieSerif, Charcuterie Serif;font-size:60px;}.c,.d{fill:#ccc;}.e{letter-spacing:-.09em;}.f{letter-spacing:-.07em;}</style></defs><g><path class="d" d="M91.7,83.75c.32,2.75,.38,5.65,.24,8.67-.14,3.02-.46,6.15-.89,9.38-.22,1.61-.5,3.24-.93,4.86-.42,1.62-1,3.23-1.81,4.75-.81,1.52-1.84,2.95-2.95,4.33-.56,.7-1.13,1.38-1.72,2.08-.58,.69-1.17,1.39-1.76,2.09-2.37,2.8-4.82,5.64-7.5,8.38-2.68,2.73-5.58,5.38-8.82,7.68-1.62,1.15-3.32,2.21-5.11,3.16-1.78,.95-3.65,1.76-5.6,2.41s-3.96,1.13-6.02,1.4c-2.06,.27-4.16,.36-6.27,.37-4.22,0-8.4-.15-12.51-.46-1.02-.08-2.04-.16-3.04-.33-1-.17-1.98-.41-2.9-.8-.91-.4-1.77-.91-2.51-1.57-.74-.65-1.39-1.41-1.94-2.22-.56-.81-.99-1.7-1.37-2.6-.37-.9-.67-1.83-.9-2.78-.46-1.89-.65-3.82-.69-5.72-.08-3.82,.52-7.56,1.68-11.02,.58-1.73,1.26-3.41,1.89-5.08,.16-.42,.31-.84,.46-1.26,.14-.42,.29-.84,.42-1.26,.28-.84,.5-1.69,.69-2.55,.04-.22,.08-.43,.13-.64,.04-.21,.07-.43,.1-.65,.07-.43,.1-.86,.14-1.29,.01-.22,.02-.43,.02-.65,0-.21,.01-.43,0-.64,0-.43-.02-.85-.03-1.27-.02-.84-.04-1.67-.01-2.5,.04-.82,.12-1.63,.32-2.41,.09-.39,.22-.77,.36-1.15,.07-.19,.13-.38,.2-.56,.08-.18,.15-.37,.23-.55,.07-.19,.15-.36,.24-.54,.08-.18,.16-.36,.25-.53,.08-.15,.16-.3,.24-.45,.01-.03,.03-.05,.04-.08,.09-.17,.18-.33,.29-.49,.1-.16,.2-.34,.31-.49,.11-.16,.22-.32,.33-.48,.11-.16,.24-.3,.35-.46l.18-.23,.19-.21c.5-.58,1.06-1.09,1.64-1.56,.15-.12,.3-.23,.44-.34,.15-.11,.31-.21,.46-.32l.23-.16,.23-.15c.16-.1,.31-.19,.47-.29,.64-.37,1.28-.71,1.94-1.01,1.27-.68,2.71-.79,4.07-.74,.69,.04,1.36,.13,2.02,.23,.66,.12,1.31,.26,1.95,.41,1.28,.31,2.51,.68,3.71,1.02,2.4,.69,4.65,1.37,6.72,2.13,.52,.19,1.02,.38,1.52,.57,.25,.1,.49,.19,.72,.3s.45,.24,.66,.38c.85,.55,1.55,1.24,2.19,1.93,.64,.69,1.22,1.38,1.8,2.02,.58,.64,1.13,1.24,1.55,1.89,.21,.32,.38,.65,.53,.98,.15,.33,.25,.67,.36,.99,.21,.65,.42,1.26,.6,1.83,.33,1.01,.62,1.89,.87,2.61,.02,.06,.04,.12,.06,.17,.02-.01,.05-.02,.07-.03,1.37-.69,3.07-1.56,5-2.68,1.32-.76,2.74-1.65,4.21-2.69,.73-.53,1.48-1.08,2.22-1.69,.74-.61,1.48-1.26,2.21-1.96,1.45-1.41,2.87-3.01,4.08-4.86,1.22-1.84,2.23-3.92,2.92-6.15,.18-.56,.33-1.12,.48-1.68,.13-.56,.27-1.12,.37-1.68,.22-1.12,.38-2.23,.49-3.32,.12-1.1,.19-2.17,.23-3.23,.05-1.06,.06-2.09,.06-3.1-.02-2.01-.04-3.93-.06-5.72-.02-1.79-.02-3.46,0-4.98,.03-3.04,.13-5.51,.25-7.2,.03-.42,.06-.8,.09-1.13,0-.09,.03-.6,.04-.69,1.01,.02,1.95,.02,2.82-.03,.73-.04,1.41-.1,2.04-.13s1.2-.03,1.7,.01c.06,0,.13,0,.19,.02-.12,.29-.27,1.05-.42,1.43-.07,.19-.14,.4-.21,.61-.04,.11-.08,.22-.11,.33-.03,.12-.07,.23-.1,.36-.07,.24-.14,.5-.21,.76-.06,.27-.13,.55-.2,.84-.25,1.17-.46,2.54-.55,4.09-.1,1.55-.09,3.28,.06,5.17,.14,1.89,.44,3.92,.83,6.09,.4,2.17,.9,4.47,1.41,6.91,.21,1.04,.43,2.1,.63,3.19,.01,.06,.02,.13,.03,.19,.26,1.42,.49,2.89,.66,4.4Zm-44.39,12.4c.08-1.51-.57-2.96-1.65-3.78-.54-.41-1.14-.67-1.73-.82-.59-.15-1.18-.22-1.73-.26-1.11-.07-2.1-.04-2.96-.11-.87-.06-1.61-.16-2.22-.27-.32-.05-.61-.11-.85-.16h0s-.05-.02-.14-.03c-.08,0-.2-.02-.35-.03-.04,0-.08,0-.13,0-.32-.02-.75-.04-1.29-.06-.61-.03-1.37-.06-2.25,.03-.44,.05-.91,.13-1.39,.29-.24,.08-.48,.19-.71,.32-.12,.06-.23,.14-.35,.22-.11,.09-.22,.17-.33,.27-.21,.2-.4,.46-.47,.78-.04,.15-.05,.3-.06,.45s-.03,.29-.05,.44c-.06,.6-.13,1.21-.19,1.86-.05,.65-.07,1.35,.13,2.05,.1,.35,.27,.69,.5,.98,.23,.3,.52,.55,.84,.76,.64,.42,1.4,.64,2.17,.73,.77,.1,1.56,.08,2.35,.07,1.58-.02,3.22-.03,4.9-.05,.84-.01,1.67,0,2.49-.06,.82-.05,1.64-.15,2.42-.39,.39-.12,.76-.27,1.12-.46,.17-.1,.35-.2,.51-.32,.17-.11,.32-.24,.47-.37,.29-.27,.55-.6,.7-.97,.15-.37,.22-.76,.24-1.13Z"/><path class="d" d="M96.94,34.47c-.26-3.12-.8-6.68-2.11-10.41-.32-.93-.7-1.87-1.12-2.81-.22-.46-.43-.94-.68-1.4-.12-.23-.24-.47-.37-.7-.13-.23-.26-.46-.4-.7-.55-.92-1.14-1.85-1.82-2.73l-.25-.34c-.08-.11-.18-.22-.27-.33-.18-.22-.36-.43-.54-.65-.38-.42-.76-.85-1.17-1.25-1.63-1.64-3.55-3.1-5.62-4.44-2.08-1.34-4.31-2.56-6.62-3.8-2.3-1.23-4.69-2.46-7.25-3.38-1.28-.46-2.61-.84-3.97-1.1-1.36-.25-2.76-.38-4.18-.42-5.67-.12-11.57,.74-17.26,2.68-5.69,1.94-10.85,4.98-15.05,8.8-2.1,1.91-4.01,3.95-5.93,5.91-1.91,1.96-3.82,3.86-5.88,5.5-2.05,1.65-4.23,2.99-6.28,4.37-2.06,1.38-4.01,2.79-5.64,4.43-.81,.82-1.55,1.68-2.19,2.6-.64,.91-1.16,1.88-1.55,2.87-.05,.13-.1,.25-.14,.37-.04,.13-.08,.25-.12,.38-.09,.25-.15,.51-.21,.76l-.03,.11s.04-.05,.07-.07c.09-.1,.2-.21,.31-.34,.06-.06,.12-.13,.18-.2,.06-.07,.13-.14,.2-.21,.3-.28,.64-.59,1.02-.95,.09-.09,.2-.18,.31-.26,.11-.09,.22-.18,.33-.27,.23-.18,.46-.38,.71-.58,.25-.2,.53-.38,.81-.59,.14-.1,.28-.2,.43-.31,.15-.1,.3-.21,.46-.31,.32-.2,.64-.4,.98-.61,.08-.05,.17-.1,.26-.16,.09-.05,.18-.1,.27-.15,.18-.1,.36-.2,.55-.3,.37-.2,.75-.42,1.16-.6,.41-.19,.82-.4,1.25-.58,3.44-1.5,7.84-2.67,12.8-2.98,2.48-.15,5.1-.1,7.79,.17,2.69,.27,5.46,.72,8.25,1.34,5.59,1.24,10.79,2.92,15.5,4.45,2.36,.76,4.59,1.49,6.7,2.14,2.1,.65,4.07,1.23,5.88,1.72,1.81,.48,3.45,.88,4.9,1.2,.73,.15,1.4,.29,2.03,.41,.63,.11,1.2,.22,1.71,.31,.52,.08,.97,.15,1.37,.22,.4,.06,.74,.1,1.01,.14,.27,.04,.48,.07,.62,.09,.14,.02,.21,.04,.21,.04,0,0-.07,0-.21,0s-.35-.03-.63-.06c-.27-.03-.61-.06-1.02-.11-.4-.05-.86-.12-1.38-.19-.52-.07-1.09-.17-1.72-.28-.63-.11-1.31-.24-2.04-.38-1.46-.3-3.11-.68-4.93-1.15-1.81-.47-3.79-1.04-5.9-1.68-2.11-.64-4.35-1.36-6.71-2.11-4.72-1.51-9.9-3.17-15.47-4.41-2.79-.61-5.53-1.07-8.21-1.34-2.67-.27-5.27-.33-7.73-.19-4.93,.29-9.29,1.42-12.72,2.88-.43,.18-.84,.38-1.24,.57-.41,.18-.79,.39-1.16,.58-.18,.1-.37,.2-.55,.29-.09,.05-.18,.09-.27,.14-.09,.05-.17,.1-.25,.15-.34,.2-.67,.4-.98,.6-.16,.09-.31,.2-.46,.3-.15,.1-.29,.2-.43,.3-.28,.2-.56,.38-.81,.57-.25,.2-.49,.38-.72,.56-.11,.09-.23,.18-.33,.26-.11,.08-.21,.17-.31,.26-.39,.35-.74,.66-1.04,.92-.08,.07-.15,.13-.21,.2-.07,.07-.13,.13-.19,.19-.12,.12-.23,.23-.33,.33l-.15,.15-.03,.14c-.02,.13-.05,.26-.07,.38-.02,.13-.05,.25-.06,.38-.01,.13-.02,.26-.04,.38-.09,.94-.07,1.87,.08,2.77,.16-.14,.33-.29,.51-.45,.97-.84,2.19-1.83,3.69-2.88,1.49-1.05,3.27-2.14,5.33-3.16,1.04-.5,2.14-1,3.32-1.43,.15-.05,.29-.11,.44-.17,.15-.05,.3-.1,.45-.15,.3-.1,.61-.21,.92-.31,.62-.19,1.27-.38,1.93-.53,1.32-.32,2.71-.55,4.16-.63,1.45-.08,2.94,0,4.45,.2,.64,.08,1.28,.17,1.92,.27,.03,0,.05,0,.08,.01,.86,.14,1.73,.28,2.61,.43,1.57,.26,3.16,.53,4.79,.8,3.26,.55,6.63,1.11,10.08,1.69,6.9,1.16,13.48,2.28,19.46,3.3,2.99,.51,5.84,.99,8.48,1.53,2.65,.54,5.09,1.16,7.28,1.86,.43,.14,.84,.27,1.25,.42l.24,.08c1.59,.56,3.02,1.17,4.28,1.79,.41,.21,.79,.42,1.17,.62,.38,.19,.73,.41,1.06,.61,.17,.1,.33,.2,.49,.3,.16,.1,.32,.19,.46,.29l.02,.02s.03,.02,.05,.04c-.18-.02-.39-.04-.46-.05-.73-.09-1.81-.27-3.18-.57-.69-.14-1.44-.31-2.28-.47-.38-.07-.77-.14-1.18-.21l-.14-.02c-.45-.07-.92-.15-1.41-.21-1.97-.28-4.22-.51-6.71-.77-2.49-.26-5.22-.54-8.15-.84-1.2-.12-2.68-.28-3.94-.41,.03,.08,.05,.18,0,0-.2-.02-.4-.04-.6-.06-1.56-.16-3.16-.32-4.81-.41-1.35-.08-2.73-.12-4.13-.08-.31,0-.62,.02-.93,.03-.86,.05-1.73,.12-2.6,.25-.21,.02-.41,.06-.62,.09h-.03c-.22,.04-.44,.07-.65,.12-.44,.08-.87,.17-1.31,.27-.46,.1-.92,.21-1.39,.33-.68,.17-1.35,.35-2.03,.54-.18,.13-.28,.2-.3,.19,0,0,.03-.05,.09-.13-.56,.16-1.11,.32-1.67,.49-.67,.21-1.34,.41-2.01,.63-.84,.27-1.68,.57-2.51,.92,0,.03,0,.04,0,.05,0,0-.02,0-.03-.03-.25,.11-.5,.22-.74,.33-.43,.2-.84,.42-1.24,.66-.4,.24-.8,.5-1.2,.75-.8,.5-1.63,1-2.56,1.25-.93,.26-1.89,.25-2.81,.2-.27-.02-.54-.03-.8-.05-.14,0-.28-.02-.41-.02-.51-.03-1.01-.05-1.51-.07-.33-.01-.67-.02-1-.03-1.45-.03-2.88,0-4.26,.2-.3,.04-.59,.09-.89,.14-.12,.02-.23,.05-.35,.07-.42,.09-.84,.19-1.26,.31-.82,.22-1.62,.44-2.4,.7-1.56,.51-3.05,1.14-4.26,2.11-.11,.09-.22,.18-.33,.27-.04,.03-.08,.07-.11,.1l-.03,.03c-.13,.12-.26,.24-.39,.36-.15,.13-.24,.24-.32,.41-.07,.15-.1,.32-.12,.5-.03,.36,.01,.73,.05,1.1,.02,.18,.03,.38,.04,.56,.01,.18,.04,.36,.07,.53,.04,.17,.09,.34,.17,.45,.05,.06,.07,.08,.16,.12,.09,.05,.19,.13,.25,.19,.28,.27,.47,.6,.63,.94,.29,.68,.41,1.37,.58,2.03,.32,1.33,.64,2.6,.99,3.8,.17,.6,.36,1.18,.54,1.74,.09,.28,.19,.56,.29,.83,.09,.27,.2,.52,.35,.76,.28,.46,.68,.84,1.09,1.16,.41,.32,.86,.56,1.32,.71,.23,.08,.46,.13,.69,.17,.23,.04,.47,.06,.7,.08,.46,.05,.9,.09,1.32,.13,.85,.06,1.62,.07,2.31,0,.12-.01,.24-.02,.36-.03,.13-.01,.25-.02,.37-.03,.41-.03,.78-.07,1.12-.12,.26-.04,.49-.08,.71-.13,.18-.41,.37-.83,.56-1.24-.22,.1-.48,.2-.78,.29-.42,.13-.9,.25-1.46,.34-.12,.02-.25,.04-.37,.05-.19,.02-.39,.04-.59,.05-.48,.04-.99,.04-1.54,.02-.54-.03-1.12-.08-1.72-.16-.3-.05-.61-.09-.92-.15-.31-.06-.63-.12-.96-.23-.32-.11-.65-.28-.91-.55-.26-.27-.41-.62-.54-.95-.5-1.33-.95-2.78-1.35-4.32-.41-1.54-.77-3.17-1.12-4.87-.09-.42-.18-.85-.27-1.28-.09-.43-.18-.88-.17-1.36,0-.24,.03-.48,.1-.71,.05-.16,.11-.31,.19-.46,.02-.04,.05-.09,.07-.13,.02-.03,.03-.05,.05-.08,.02-.03,.04-.06,.06-.08,.03-.05,.07-.1,.11-.14,.09-.12,.2-.22,.3-.32,.18-.16,.37-.31,.57-.44,.4-.26,.82-.46,1.24-.64,.42-.18,.84-.35,1.26-.51,.84-.33,1.67-.63,2.51-.86,.28-.08,.55-.15,.83-.21,.12-.03,.23-.05,.35-.08,.45-.09,.9-.17,1.35-.21,.84-.09,1.66-.09,2.46-.08,.4,0,.79,0,1.18,.03,.2,.01,.4,.03,.6,.07,.2,.04,.39,.1,.57,.17,.73,.27,1.38,.69,1.88,1.22,.12,.13,.25,.27,.35,.42,.1,.15,.19,.31,.27,.47,.15,.32,.27,.64,.38,.95,.05,.16,.11,.31,.15,.48,.04,.16,.06,.34,.07,.5,0,.33-.03,.64-.05,.93-.03,.44-.05,.88-.07,1.3,0,.04,0,.08,0,.11,0,.1-.01,.2-.02,.3,0,.15-.02,.29-.03,.43,0,.09-.01,.18-.02,.27-.02,.28-.04,.56-.07,.82-.02,.25-.05,.5-.07,.74,.18-.44,.34-.86,.5-1.25,.48-1.24,.87-2.24,1.14-2.94,.27-.69,.43-1.08,.45-1.07,0,0,0,.03,0,.07,.03-.02,.06-.05,.11-.08,.12-.07,.31-.17,.58-.23,.27-.06,.61-.11,1.01-.07,.2,.03,.42,.07,.64,.17,.21,.1,.42,.24,.62,.43,.39,.37,.66,.9,.93,1.46,.29,.55,.58,1.18,.88,1.85,.3,.67,.61,1.39,1,2.11,.19,.36,.42,.71,.66,1.09,.24,.37,.47,.75,.72,1.14,.25,.38,.52,.77,.82,1.13,.3,.36,.66,.7,1.03,1.03,.37,.33,.77,.66,1.17,.98,.41,.31,.84,.6,1.33,.77,.49,.17,1.03,.21,1.58,.2,.55-.01,1.13-.03,1.7-.06,1.15-.05,2.34-.12,3.55-.23,2.42-.22,4.96-.6,7.47-1.39,.63-.2,1.25-.43,1.87-.69,.31-.13,.61-.28,.91-.42,.04-.02,.08-.04,.11-.05,.03-.02,.06-.03,.1-.06,.06-.04,.13-.09,.19-.14,.12-.1,.24-.22,.35-.34,.23-.24,.44-.51,.67-.77l.34-.39c.1-.13,.2-.26,.28-.4,.34-.57,.51-1.24,.6-1.92,.09-.69,.1-1.38,.11-2.07,.01-.69,.03-1.39,.04-2.07,.03-1.37,.05-2.72,.08-4.05,0-.33,0-.66,.02-.99,.01-.33,.04-.67,.13-1.01,.08-.33,.23-.67,.48-.94,.13-.13,.27-.25,.43-.33,.57-.25,1.17-.24,1.48-.25,.32,0,.63-.01,.94-.02,.63,0,1.25,0,1.86,.02,2.45,.07,4.76,.31,6.91,.52,2.16,.22,4.17,.41,6,.53,.72,.04,1.42,.08,2.09,.1,.03,0,.06,0,.09,0,1,.03,1.93,.04,2.79,0,.73-.03,1.41-.08,2.04-.1,.63-.02,1.21,0,1.73,.05,.08,0,.15,.02,.23,.03,.02,0,.04,0,.05,0,.4,.06,.76,.15,1.07,.25,.38,.14,.68,.29,.91,.44,.11,.08,.26,.16,.28,.18,.16-.11,.34-.24,.53-.37,.22-.15,.46-.31,.72-.49h0c.29-.2,.6-.41,.93-.64,.35-.24,.72-.49,1.16-.71,.43-.22,.93-.41,1.48-.44,.41-.03,.84,.04,1.25,.19,0-.14,.02-.3,.03-.47,.09-1.16,.22-2.88,.3-5.09,.08-2.21,.11-4.92-.14-8.05Zm-37.07,24.75c-.05,.45-.11,.91-.23,1.37-.12,.46-.31,.93-.59,1.35-.56,.84-1.42,1.5-2.38,1.96-.97,.46-2.04,.74-3.14,.98-1.1,.25-2.23,.47-3.4,.65-1.17,.18-2.38,.34-3.62,.45-.62,.06-1.25,.1-1.89,.11-.64,0-1.29-.04-1.94-.19-.95-.21-1.85-.62-2.67-1.17-.3-.2-.59-.42-.87-.66-1.04-.87-1.89-1.97-2.6-3.15-.71-1.18-1.27-2.42-1.79-3.65-.35-.84-.71-1.68-.98-2.54-.01-.04-.03-.09-.04-.13-.11-.35-.2-.71-.27-1.07-.12-.64-.19-1.3-.09-1.96,.05-.33,.16-.66,.33-.94,.16-.29,.36-.55,.59-.78,.45-.46,.96-.82,1.46-1.17,.51-.34,1.02-.66,1.55-.94,2.1-1.14,4.27-1.84,6.34-2.3,2.07-.45,4.03-.66,5.81-.77,1.79-.11,3.41-.13,4.83-.15,.71-.01,1.38-.03,1.99,.03,.61,.05,1.18,.18,1.63,.44,.45,.27,.71,.66,.91,.99,.2,.34,.32,.64,.41,.89,.09,.25,.14,.44,.17,.58,.03,.13,.04,.2,.03,.2,0,0,.03,.07,.06,.2,.03,.13,.08,.33,.11,.59,.05,.38,.09,.89,.14,1.51,0,.05,0,.1,.01,.15,.02,.2,.03,.41,.05,.64,.08,1,.16,2.22,.2,3.64,.04,1.42,.04,3.05-.13,4.84Z"/><path class="d" d="M26.85,34.01c-.33,.24-.76,.57-1.27,1.01-1.21,1.04-2.91,2.66-4.46,5.09-.38,.61-.76,1.26-1.11,1.96-.34,.71-.66,1.46-.93,2.26-.55,1.6-.92,3.39-.98,5.3,0,.2,0,.4,0,.6-.46,.09-.91,.2-1.35,.33-.82,.22-1.63,.45-2.42,.71-.79,.26-1.56,.55-2.3,.91-.74,.35-1.43,.77-2.06,1.27-.15,.13-.31,.25-.45,.39l-.02,.02c-1.25-.43-2.56-1.06-3.82-1.95-.16-.11-.31-.24-.47-.36-.15-.13-.32-.24-.47-.38-.15-.13-.3-.27-.46-.41l-.11-.1-.11-.11c-.07-.07-.14-.15-.22-.22-.07-.08-.15-.15-.22-.23l-.11-.11-.1-.12c-.14-.16-.27-.32-.41-.49-.14-.16-.26-.34-.39-.52-.13-.18-.26-.35-.38-.54-.12-.19-.24-.37-.36-.56-.11-.19-.22-.39-.33-.59-.05-.1-.11-.2-.16-.3s-.1-.21-.15-.31l-.15-.31c-.05-.1-.1-.21-.14-.32-.08-.22-.17-.44-.25-.66-.08-.22-.14-.45-.21-.68-.08-.23-.13-.46-.18-.7-.05-.24-.12-.47-.14-.71,0-.02,0-.05-.01-.07,.18-.16,.37-.32,.58-.49,.98-.82,2.22-1.79,3.71-2.82,1.5-1.03,3.28-2.1,5.33-3.1,1.03-.49,2.13-.98,3.3-1.4,.15-.05,.29-.11,.44-.16l.45-.15c.3-.1,.6-.21,.92-.3,.62-.19,1.26-.36,1.91-.52,1.31-.31,2.68-.53,4.1-.6,1.42-.07,2.89,.02,4.39,.21,.52,.06,1.04,.14,1.56,.22Z"/></g><text class="c" transform="translate(99.57 68.36)"><tspan class="f"><tspan x="0" y="0">Matt </tspan></tspan><tspan class="e" x="0" y="48">Sc</tspan><tspan class="f" x="53.4" y="48">hir</tspan><tspan class="b" x="122.16" y="48">l</tspan><tspan class="f" x="132.84" y="48">e</tspan></text></svg>