<?xml version="1.0" encoding="utf-8"?>
<!-- Generator: Adobe Illustrator 27.3.1, SVG Export Plug-In . SVG Version: 6.00 Build 0)  -->
<svg width="48px" height="48px" version="1.1" id="Layer_1" xmlns="http://www.w3.org/2000/svg" xmlns:xlink="http://www.w3.org/1999/xlink" x="0px" y="0px"
	 viewBox="0 0 533 533" style="enable-background:new 0 0 533 533;" xml:space="preserve">
<style type="text/css">
	.st0{fill-rule:evenodd;clip-rule:evenodd;fill:#CCCCCC;}
</style>
<path class="st0" d="M126.4,162.4l-24.1-13.8c-1.5-0.9-2.5-2.5-2.5-4.2v-29.3c0-1.7-0.9-3.4-2.4-4.2l-10.2-5.9
	c-0.7-0.4-1.6-0.7-2.4-0.7c-0.9,0-1.7,0.2-2.5,0.7l-10.2,5.9c-1.5,0.9-2.4,2.5-2.4,4.2v29.3c0,1.7-0.9,3.3-2.4,4.2l-24.1,13.8
	c-0.7,0.5-1.7,0.5-2.4,0c-0.8-0.4-1.2-1.2-1.2-2.1l-0.1-62.7c0-1.8,0.9-3.4,2.4-4.2L82.3,70c0.7-0.4,1.5-0.6,2.2-0.6
	c0.1,0,0.4,0,0.4,0c0.8,0,1.5,0.2,2.2,0.6l40.5,23.3c1.5,0.9,2.4,2.5,2.4,4.2l-0.1,62.7c0,0.9-0.5,1.7-1.2,2.1
	C128.1,162.8,127.1,162.8,126.4,162.4z M282.1,145.6V98.8c0-1.7,0.9-3.4,2.4-4.2l40.5-23.4c1.5-0.9,3.4-0.9,4.9,0l10.1,5.8
	c0.5,0.3,1.2,0.3,1.7,0c0.5-0.3,0.9-0.9,0.9-1.5V13.4c0-0.9,0.5-1.7,1.2-2.1c0.8-0.4,1.7-0.4,2.4,0l24.1,13.4
	c1.6,0.9,2.5,2.5,2.5,4.3v116.5c0,1.7-0.9,3.4-2.4,4.2L330,173.2c-1.5,0.9-3.4,0.9-4.9,0l-40.5-23.4
	C283,148.9,282.1,147.3,282.1,145.6z M312.3,130.2c0,0.4,0.2,0.8,0.6,1.1l13.9,8c0.4,0.2,0.8,0.2,1.2,0l13.9-8
	c0.4-0.2,0.6-0.6,0.6-1.1v-16.1c0-0.4-0.2-0.8-0.6-1.1l-13.9-8c-0.4-0.2-0.8-0.2-1.2,0l-13.9,8c-0.4,0.2-0.6,0.6-0.6,1.1V130.2z
	 M491.2,93.9l-40.2-23.4c-1.5-0.9-3.4-0.9-4.9,0l-40.5,23.4c-1.5,0.9-2.4,2.5-2.4,4.2v46.7c0,1.8,0.9,3.4,2.5,4.3l40.2,22.9
	c1.5,0.9,3.3,0.9,4.8,0l24.3-13.5c0.8-0.4,1.3-1.2,1.3-2.1c0-0.9-0.5-1.7-1.2-2.1L434.2,131c-0.8-0.4-1.2-1.2-1.2-2.1v-14.6
	c0-0.9,0.5-1.7,1.2-2.1l12.7-7.3c0.8-0.4,1.7-0.4,2.4,0l12.7,7.3c0.8,0.4,1.2,1.2,1.2,2.1v11.5c0,0.9,0.5,1.7,1.2,2.1
	c0.8,0.4,1.7,0.4,2.4,0l24.2-14.1c1.5-0.9,2.4-2.5,2.4-4.2V98.2C493.6,96.4,492.7,94.8,491.2,93.9z M163.3,148.9l40.5,23.4
	c1.5,0.9,3.4,0.9,4.9,0l40.5-23.4c1.5-0.9,2.4-2.5,2.4-4.2V97.9c0-1.7-0.9-3.4-2.4-4.2l-40.5-23.4c-1.5-0.9-3.4-0.9-4.9,0
	l-40.5,23.4c-1.5,0.9-2.4,2.5-2.4,4.2v46.8C160.8,146.5,161.8,148.1,163.3,148.9z M404.4,256.8l-124.8-72.1
	c-7.8-4.5-18.3-4.5-26.2,0l-124.8,72.1c-8.1,4.7-13.1,13.4-13.1,22.8v144.1c0,9.4,5,18.1,13.1,22.8l32.7,18.9
	c15.9,7.8,21.5,7.8,28.8,7.8c23.5,0,37-14.2,37-39V291.9c0-2-1.6-3.6-3.6-3.6h-15.8c-2,0-3.6,1.6-3.6,3.6v142.2
	c0,11-11.4,21.9-29.9,12.6L139.8,427c-1.2-0.7-2-1.9-2-3.3V279.6c0-1.4,0.8-2.7,2-3.4l124.8-72c1.2-0.7,2.7-0.7,3.8,0l124.8,72
	c1.2,0.7,1.9,2,1.9,3.4v144.1c0,1.4-0.7,2.7-1.9,3.4l-124.8,72.1c-1.1,0.6-2.7,0.6-3.9,0l-32-19c-1-0.5-2.2-0.8-3.1-0.2
	c-8.9,5-10.5,5.7-18.8,8.6c-2.1,0.7-5.1,1.9,1.1,5.4l41.7,24.7c4,2.3,8.5,3.5,13.1,3.5c4.6,0,9.2-1.2,13.1-3.5l124.8-72.1
	c8.1-4.7,13.1-13.4,13.1-22.8V279.6C417.6,270.2,412.5,261.5,404.4,256.8z M309.9,409.9c-37.3,0-45.4-9.4-48.2-27.9
	c-0.3-2-2-3.5-4-3.5h-18.2c-2.3,0-4.1,1.8-4.1,4.1c0,23.7,12.9,52,74.5,52c44.6,0,70.2-17.6,70.2-48.2c0-30.4-20.6-38.5-63.8-44.2
	c-43.7-5.8-48.2-8.8-48.2-19c0-8.4,3.8-19.7,36.1-19.7c28.9,0,39.6,6.2,44,25.7c0.4,1.8,2.1,3.2,3.9,3.2h18.3c1.1,0,2.2-0.5,3-1.3
	c0.8-0.9,1.2-2,1.1-3.1c-2.8-33.6-25.1-49.2-70.2-49.2c-40.1,0-64.1,16.9-64.1,45.3c0,30.8,23.8,39.3,62.3,43.1
	c46.1,4.5,49.7,11.3,49.7,20.3C352.2,403.2,339.6,409.9,309.9,409.9z M448.8,111.5c-0.3-0.2-0.6-0.2-0.9,0l-7.8,4.5
	c-0.3,0.2-0.5,0.5-0.5,0.8v9c0,0.3,0.2,0.6,0.5,0.8l7.8,4.5c0.3,0.2,0.6,0.2,0.9,0l7.8-4.5c0.3-0.2,0.5-0.5,0.5-0.8v-9
	c0-0.3-0.2-0.6-0.5-0.8L448.8,111.5z"/>
</svg>
