<?xml version="1.0" encoding="utf-8"?>
<!-- Generator: Adobe Illustrator 27.3.1, SVG Export Plug-In . SVG Version: 6.00 Build 0)  -->
<svg width="48px" height="48px" version="1.1" id="Layer_1" xmlns="http://www.w3.org/2000/svg" xmlns:xlink="http://www.w3.org/1999/xlink" x="0px" y="0px"
	 viewBox="0 0 238 238" style="enable-background:new 0 0 238 238;" xml:space="preserve">
<style type="text/css">
	.st0{fill:none;}
	.st1{fill:#CCCCCC;}
</style>
<rect x="95" y="95" class="st0" width="24" height="24"/>
<path class="st1" d="M119.1,99.9c10.4,0,18.8,8.4,18.8,18.8c0,10.4-8.4,18.8-18.8,18.8c-10.3,0-18.7-8.3-18.8-18.6
	C100.2,108.5,108.6,100,119.1,99.9C119,99.9,119.1,99.9,119.1,99.9 M72.5,199.4c6.3,3.8,20.1-2,36.2-17.1
	c-5.4-6.1-10.5-12.5-15.2-19.1c-8.1-0.9-16.2-2.3-24.1-4C64.2,180.7,66.1,195.5,72.5,199.4 M79.6,141.7l-2.9-5.1
	c-1.1,2.8-2.1,5.7-2.9,8.7c2.7,0.6,5.7,1.1,8.9,1.6L79.6,141.7 M145.4,134l8.1-15.1l-8.1-15.1c-3-5.3-6.2-10.1-9.2-14.8
	c-5.4-0.3-11.2-0.3-17.2-0.3c-6,0-11.8,0-17.2,0c-2.9,4.7-6.1,9.5-9.2,14.8l-8.1,15.4l8.1,15.1c3,5.3,6.2,10.1,9.2,14.8
	c5.4,0,11.2,0,17.2,0c6,0,11.8,0,17.2,0C139.2,144.1,142.4,139.4,145.4,134 M119.1,66.4c-1.9,2.2-3.9,4.5-5.9,7.2H125
	C123,71,121,68.6,119.1,66.4 M119.1,171.5c1.9-2.2,3.9-4.5,5.9-7.2h-11.9C115.1,166.9,117.1,169.3,119.1,171.5 M165.5,38.5
	c-6.2-3.8-20.1,2-36.1,17.1c5.4,6.1,10.5,12.5,15.2,19.1c8.1,0.8,16.2,2,24.1,3.6c5.1-21.5,3.2-36.3-3.2-40.2 M158.5,95.8l2.9,5.1
	c1.1-2.8,2.1-5.7,2.9-8.7c-2.7-0.6-5.7-1.1-8.9-1.6L158.5,95.8 M173.1,25.4c14.8,8.5,16.4,30.7,10.1,56.6c25.6,7.5,44,20.1,44,37
	s-18.4,29.5-44,37c6.2,26,4.6,48.2-10.1,56.6s-34.7-1.2-54-19.6c-19.3,18.4-39.3,28.1-54.1,19.6s-16.3-30.2-10.1-56.6
	c-25.6-7.5-44-20.1-44-37s18.4-29.6,44-37.1c-6.2-26-4.6-48.2,10.1-56.6s34.8,1.2,54.1,19.6c19.3-18.4,39.3-28.1,54-19.6
	 M170.2,118.9c3.5,7.4,6.6,15,9.3,22.7c21.1-6.3,33-15.4,33-22.7s-12.2-16.4-33-22.7C176.7,104,173.7,111.5,170.2,118.9 M67.9,118.9
	c-3.5-7.4-6.6-15-9.3-22.7c-21.1,6.3-33,15.4-33,22.7s12.2,16.4,33,22.7C61.4,133.9,64.4,126.4,67.9,118.9 M158.5,141.7l-3,5.1
	c3.1,0,6.1-1,8.9-1.6c-0.8-2.9-1.8-5.8-2.9-8.7L158.5,141.7 M129.1,182.3c16,15.1,30.2,20.9,36.1,17.1c5.9-3.8,8.4-18.3,3.2-40.2
	c-8,1.6-16,2.8-24.1,3.6C139.6,169.6,134.5,176.1,129.1,182.3 M79.6,96.2l3-5.1c-3.1,0-6.1,1-8.9,1.6c0.8,2.9,1.8,5.8,2.9,8.7
	L79.6,96.2 M109,55.6C92.7,40.5,78.8,34.6,72.5,38.5c-6.3,3.8-8.3,18.3-3.1,40.2c8-1.6,16-2.8,24.1-3.6
	C98.3,68.3,103.5,61.8,109,55.6z"/>
</svg>
